HIERARCHY
ROOT Root
{
	OFFSET 0.00000 0.00000 0.00000
	CHANNELS 6 Xposition Yposition Zposition Zrotation Xrotation Yrotation
	JOINT Hips
	{
		OFFSET 0 0 0	
		CHANNELS 3 Zrotation Xrotation Yrotation
		JOINT Spine
		{
			OFFSET 0 4 0	
			CHANNELS 3 Zrotation Xrotation Yrotation
			JOINT Spine1
			{
				OFFSET 0 19.4 0	
				CHANNELS 3 Zrotation Xrotation Yrotation
				JOINT Spine2
				{
					OFFSET 0 16.6 0	
					CHANNELS 3 Zrotation Xrotation Yrotation
					JOINT LeftCollar
					{
						OFFSET 0 10 0	
						CHANNELS 3 Zrotation Xrotation Yrotation
						JOINT LeftArm
						{
							OFFSET 15.6 -2 3	
							CHANNELS 3 Zrotation Xrotation Yrotation
							JOINT LeftForeArm
							{
								OFFSET 3.5 -27 -1	
								CHANNELS 3 Zrotation Xrotation Yrotation
								JOINT LeftHand
								{
									OFFSET 1 -27 1	
									CHANNELS 3 Zrotation Xrotation Yrotation
									End Site
									{
										OFFSET 0 -15 0
									}
								}
							}
						}
					}
					JOINT RightCollar
					{
						OFFSET 0 10 0	
						CHANNELS 3 Zrotation Xrotation Yrotation
						JOINT RightArm
						{
							OFFSET -15.6 -2 3	
							CHANNELS 3 Zrotation Xrotation Yrotation
							JOINT RightForeArm
							{
								OFFSET -3.5 -27 -1	
								CHANNELS 3 Zrotation Xrotation Yrotation
								JOINT RightHand
								{
									OFFSET -1 -27 1	
									CHANNELS 3 Zrotation Xrotation Yrotation
									End Site
									{
										OFFSET 0 -15 0
									}
								}
							}
						}
					}
					JOINT Neck
					{
						OFFSET 0 10 0	
						CHANNELS 3 Zrotation Xrotation Yrotation
						JOINT Head
						{
							OFFSET 0 12.7 3	
							CHANNELS 3 Zrotation Xrotation Yrotation
							End Site
							{
								OFFSET 0 12.7 3
							}
						}
					}
				}
			}
		}
	}
	JOINT LeftHip
	{
		OFFSET 0 0 0	
		CHANNELS 3 Zrotation Xrotation Yrotation
		JOINT LeftUpLeg
		{
			OFFSET 8.8 -6 0	
			CHANNELS 3 Zrotation Xrotation Yrotation
			JOINT LeftLeg
			{
				OFFSET 0 -39 2	
				CHANNELS 3 Zrotation Xrotation Yrotation
				JOINT LeftFoot
				{
					OFFSET 0 -43 -2	
					CHANNELS 3 Zrotation Xrotation Yrotation
					JOINT LeftFootFront
					{
						OFFSET 0 -7 8.5	
						CHANNELS 3 Zrotation Xrotation Yrotation
						End Site
						{
							OFFSET 0 -0.5 9
						}
					}
				}
				JOINT LeftHeel
				{
					OFFSET 0 -43 -2	
					CHANNELS 3 Zrotation Xrotation Yrotation
					End Site
					{
						OFFSET 0 -7.5 -5
					}
				}
			}
		}
	}
	JOINT RightHip
	{
		OFFSET 0 0 0	
		CHANNELS 3 Zrotation Xrotation Yrotation
		JOINT RightUpLeg
		{
			OFFSET -8.8 -6 0	
			CHANNELS 3 Zrotation Xrotation Yrotation
			JOINT RightLeg
			{
				OFFSET 0 -39 2	
				CHANNELS 3 Zrotation Xrotation Yrotation
				JOINT RightFoot
				{
					OFFSET 0 -43 -2	
					CHANNELS 3 Zrotation Xrotation Yrotation
					JOINT RightFootFront
					{
						OFFSET 0 -7 8.5	
						CHANNELS 3 Zrotation Xrotation Yrotation
						End Site
						{
							OFFSET 0 -0.5 9
						}
					}
				}
				JOINT RightHeel
				{
					OFFSET 0 -43 -2	
					CHANNELS 3 Zrotation Xrotation Yrotation
					End Site
					{
						OFFSET 0 -7.5 -5
					}
				}
			}
		}
	}
}
MOTION
Frames: 36
Frame Time: 0.05
0 95.5 0 -0 0 -0 -0 0 -0 -0 0 -0 -10.832 52.686 18.504 -0 0 -0 -0 0 -0 -9.0481 -44.056 2.4353 -37.941 -14.222 -97.796 -0 0 -0 -0 0 -0 143 -85.162 -158.74 -37.248 39.668 -95.177 -0 0 -0 -4.6421 -35.135 -6.0456 -4.6421 -35.135 -6.0456 -0 0 -0 -0 0 -0 -0 0 -0 -0 0 -0 -0 0 -0 -0 0 -0 -0 0 -0 -0 0 -0 -0 0 -0 -0 0 -0 -0 0 -0 -0 0 -0 
0 95.5 0 -0 0 -0 -0 0 -0 -0 0 -0 -9.8286 52.356 17.434 -0 0 -0 -0 0 -0 -9.3298 -43.99 2.2681 -37.578 -14.293 -97.188 -0 0 -0 -0 0 -0 138.81 -86.148 -163.52 -37.403 37.204 -94.624 -0 0 -0 -4.5406 -34.693 -5.8169 -4.5406 -34.693 -5.8169 -0 0 -0 -0 0 -0 -0 0 -0 -0 0 -0 -0 0 -0 -0 0 -0 -0 0 -0 -0 0 -0 -0 0 -0 -0 0 -0 -0 0 -0 -0 0 -0 
0 95.5 0 -0 0 -0 -0 0 -0 -0 0 -0 -8.7945 51.876 16.271 -0 0 -0 -0 0 -0 -9.4173 -43.816 2.2475 -37.212 -14.367 -96.591 -0 0 -0 -0 0 -0 130.67 -87.32 -172.17 -37.336 34.564 -94.332 -0 0 -0 -4.3268 -34.179 -5.4982 -4.3268 -34.179 -5.4982 -0 0 -0 -0 0 -0 -0 0 -0 -0 0 -0 -0 0 -0 -0 0 -0 -0 0 -0 -0 0 -0 -0 0 -0 -0 0 -0 -0 0 -0 -0 0 -0 
0 95.5 0 -0 0 -0 -0 0 -0 -0 0 -0 -7.8013 51.397 15.202 -0 0 -0 -0 0 -0 -9.5409 -43.673 2.1493 -36.775 -14.427 -95.976 -0 0 -0 -0 0 -0 115.39 -88.384 171.9 -37.251 31.807 -93.874 -0 0 -0 -4.1584 -33.683 -5.1787 -4.1584 -33.683 -5.1787 -0 0 -0 -0 0 -0 -0 0 -0 -0 0 -0 -0 0 -0 -0 0 -0 -0 0 -0 -0 0 -0 -0 0 -0 -0 0 -0 -0 0 -0 -0 0 -0 
0 95.5 0 -0 0 -0 -0 0 -0 -0 0 -0 -7.0278 50.934 14.244 -0 0 -0 -0 0 -0 -9.5136 -43.587 2.1036 -36.3 -14.5 -95.411 -0 0 -0 -0 0 -0 69.731 -88.988 125.36 -37.219 28.938 -93.474 -0 0 -0 -3.9853 -33.238 -4.9083 -3.9853 -33.238 -4.9083 -0 0 -0 -0 0 -0 -0 0 -0 -0 0 -0 -0 0 -0 -0 0 -0 -0 0 -0 -0 0 -0 -0 0 -0 -0 0 -0 -0 0 -0 -0 0 -0 
0 95.5 0 -0 0 -0 -0 0 -0 -0 0 -0 -6.3649 50.489 13.319 -0 0 -0 -0 0 -0 -9.3676 -43.547 2.15 -35.867 -14.551 -94.859 -0 0 -0 -0 0 -0 19.317 -88.595 74.516 -36.855 26.552 -93.688 -0 0 -0 -3.8315 -32.825 -4.6271 -3.8315 -32.825 -4.6271 -0 0 -0 -0 0 -0 -0 0 -0 -0 0 -0 -0 0 -0 -0 0 -0 -0 0 -0 -0 0 -0 -0 0 -0 -0 0 -0 -0 0 -0 -0 0 -0 
0 95.5 0 -0 0 -0 -0 0 -0 -0 0 -0 -5.5649 50.053 12.311 -0 0 -0 -0 0 -0 -9.2983 -43.501 2.1691 -35.469 -14.625 -94.216 -0 0 -0 -0 0 -0 3.8082 -87.694 58.65 -36.875 24.954 -94.662 -0 0 -0 -3.7515 -32.335 -4.2949 -3.7515 -32.335 -4.2949 -0 0 -0 -0 0 -0 -0 0 -0 -0 0 -0 -0 0 -0 -0 0 -0 -0 0 -0 -0 0 -0 -0 0 -0 -0 0 -0 -0 0 -0 -0 0 -0 
0 95.5 0 -0 0 -0 -0 0 -0 -0 0 -0 -4.7189 49.636 11.315 -0 0 -0 -0 0 -0 -9.3194 -43.517 2.1546 -35.092 -14.697 -93.45 -0 0 -0 -0 0 -0 3.5038 -86.9 58.164 -37.401 24.632 -95.625 -0 0 -0 -3.6461 -31.879 -3.9172 -3.6461 -31.879 -3.9172 -0 0 -0 -0 0 -0 -0 0 -0 -0 0 -0 -0 0 -0 -0 0 -0 -0 0 -0 -0 0 -0 -0 0 -0 -0 0 -0 -0 0 -0 -0 0 -0 
0 95.5 0 -0 0 -0 -0 0 -0 -0 0 -0 -3.898 49.328 10.435 -0 0 -0 -0 0 -0 -9.4934 -43.619 1.986 -34.696 -14.745 -92.63 -0 0 -0 -0 0 -0 4.6607 -86.594 59.197 -37.435 24.636 -94.206 -0 0 -0 -3.5385 -31.362 -3.4594 -3.5385 -31.362 -3.4594 -0 0 -0 -0 0 -0 -0 0 -0 -0 0 -0 -0 0 -0 -0 0 -0 -0 0 -0 -0 0 -0 -0 0 -0 -0 0 -0 -0 0 -0 -0 0 -0 
0 95.5 0 -0 0 -0 -0 0 -0 -0 0 -0 -3.417 49.054 9.9886 -0 0 -0 -0 0 -0 -9.67 -43.77 1.5622 -34.327 -14.811 -91.978 -0 0 -0 -0 0 -0 -2.198 -86.399 51.992 -36.886 23.826 -91.918 -0 0 -0 -3.4826 -30.814 -3.1394 -3.4826 -30.814 -3.1394 -0 0 -0 -0 0 -0 -0 0 -0 -0 0 -0 -0 0 -0 -0 0 -0 -0 0 -0 -0 0 -0 -0 0 -0 -0 0 -0 -0 0 -0 -0 0 -0 
0 95.5 0 -0 0 -0 -0 0 -0 -0 0 -0 -3.5197 48.758 10.044 -0 0 -0 -0 0 -0 -9.5184 -43.9 1.1394 -34.009 -14.877 -91.369 -0 0 -0 -0 0 -0 -13.278 -85.8 41.784 -35.803 23.318 -92.391 -0 0 -0 -3.4842 -30.422 -3.0657 -3.4842 -30.422 -3.0657 -0 0 -0 -0 0 -0 -0 0 -0 -0 0 -0 -0 0 -0 -0 0 -0 -0 0 -0 -0 0 -0 -0 0 -0 -0 0 -0 -0 0 -0 -0 0 -0 
0 95.5 0 -0 0 -0 -0 0 -0 -0 0 -0 -3.683 48.493 10.012 -0 0 -0 -0 0 -0 -9.3388 -44.014 0.96496 -33.706 -14.864 -90.72 -0 0 -0 -0 0 -0 -14.605 -85.247 40.959 -35.444 23.307 -92.823 -0 0 -0 -3.4543 -30.077 -2.9668 -3.4543 -30.077 -2.9668 -0 0 -0 -0 0 -0 -0 0 -0 -0 0 -0 -0 0 -0 -0 0 -0 -0 0 -0 -0 0 -0 -0 0 -0 -0 0 -0 -0 0 -0 -0 0 -0 
0 95.5 0 -0 0 -0 -0 0 -0 -0 0 -0 -3.3201 48.309 9.5152 -0 0 -0 -0 0 -0 -9.4889 -44.09 1.0096 -33.458 -14.8 -90.215 -0 0 -0 -0 0 -0 -9.8117 -84.908 45.488 -35.938 23.39 -92.27 -0 0 -0 -3.5954 -29.851 -2.7897 -3.5954 -29.851 -2.7897 -0 0 -0 -0 0 -0 -0 0 -0 -0 0 -0 -0 0 -0 -0 0 -0 -0 0 -0 -0 0 -0 -0 0 -0 -0 0 -0 -0 0 -0 -0 0 -0 
0 95.5 0 -0 0 -0 -0 0 -0 -0 0 -0 -3.0367 48.24 9.2352 -0 0 -0 -0 0 -0 -9.7835 -44.151 0.89009 -33.287 -14.778 -89.933 -0 0 -0 -0 0 -0 -7.766 -84.455 47.662 -36.414 23.801 -91.919 -0 0 -0 -3.7472 -29.673 -2.6956 -3.7472 -29.673 -2.6956 -0 0 -0 -0 0 -0 -0 0 -0 -0 0 -0 -0 0 -0 -0 0 -0 -0 0 -0 -0 0 -0 -0 0 -0 -0 0 -0 -0 0 -0 -0 0 -0 
0 95.5 0 -0 0 -0 -0 0 -0 -0 0 -0 -3.2485 48.267 9.4366 -0 0 -0 -0 0 -0 -9.8845 -44.242 0.59873 -33.231 -14.858 -89.797 -0 0 -0 -0 0 -0 -8.0535 -83.816 47.612 -37.044 24.563 -91.792 -0 0 -0 -3.7867 -29.524 -2.7257 -3.7867 -29.524 -2.7257 -0 0 -0 -0 0 -0 -0 0 -0 -0 0 -0 -0 0 -0 -0 0 -0 -0 0 -0 -0 0 -0 -0 0 -0 -0 0 -0 -0 0 -0 -0 0 -0 
0 95.5 0 -0 0 -0 -0 0 -0 -0 0 -0 -3.4604 48.279 9.5775 -0 0 -0 -0 0 -0 -9.9498 -44.21 0.43428 -33.26 -14.975 -89.65 -0 0 -0 -0 0 -0 -7.4877 -83.066 48.087 -38.1 25.277 -91.622 -0 0 -0 -3.7965 -29.318 -2.738 -3.7965 -29.318 -2.738 -0 0 -0 -0 0 -0 -0 0 -0 -0 0 -0 -0 0 -0 -0 0 -0 -0 0 -0 -0 0 -0 -0 0 -0 -0 0 -0 -0 0 -0 -0 0 -0 
0 95.5 0 -0 0 -0 -0 0 -0 -0 0 -0 -3.471 48.337 9.5284 -0 0 -0 -0 0 -0 -10.088 -44.116 0.44868 -33.383 -15.083 -89.574 -0 0 -0 -0 0 -0 -5.8581 -82.533 49.152 -38.655 25.896 -91.51 -0 0 -0 -3.8285 -29.136 -2.7118 -3.8286 -29.136 -2.7118 -0 0 -0 -0 0 -0 -0 0 -0 -0 0 -0 -0 0 -0 -0 0 -0 -0 0 -0 -0 0 -0 -0 0 -0 -0 0 -0 -0 0 -0 -0 0 -0 
0 95.5 0 -0 0 -0 -0 0 -0 -0 0 -0 -3.3963 48.412 9.4746 -0 0 -0 -0 0 -0 -10.375 -44.02 0.50746 -33.516 -15.063 -89.545 -0 0 -0 -0 0 -0 -2.9629 -82.213 51.544 -37.751 27.079 -92.063 -0 0 -0 -3.9397 -29.016 -2.7208 -3.9397 -29.016 -2.7208 -0 0 -0 -0 0 -0 -0 0 -0 -0 0 -0 -0 0 -0 -0 0 -0 -0 0 -0 -0 0 -0 -0 0 -0 -0 0 -0 -0 0 -0 -0 0 -0 
0 95.5 0 -0 0 -0 -0 0 -0 -0 0 -0 -3.577 48.615 9.7036 -0 0 -0 -0 0 -0 -10.527 -44.026 0.48976 -33.692 -15.103 -89.819 -0 0 -0 -0 0 -0 4.2365 -82.212 58.459 -35.721 28.725 -93.97 -0 0 -0 -4.0529 -28.992 -2.8523 -4.0529 -28.992 -2.8523 -0 0 -0 -0 0 -0 -0 0 -0 -0 0 -0 -0 0 -0 -0 0 -0 -0 0 -0 -0 0 -0 -0 0 -0 -0 0 -0 -0 0 -0 -0 0 -0 
0 95.5 0 -0 0 -0 -0 0 -0 -0 0 -0 -3.7836 48.837 9.7495 -0 0 -0 -0 0 -0 -10.402 -44.004 0.81927 -33.897 -15.134 -90.129 -0 0 -0 -0 0 -0 16.826 -82.22 70.808 -33.993 30.89 -94.703 -0 0 -0 -4.0272 -29.063 -2.8536 -4.0272 -29.063 -2.8536 -0 0 -0 -0 0 -0 -0 0 -0 -0 0 -0 -0 0 -0 -0 0 -0 -0 0 -0 -0 0 -0 -0 0 -0 -0 0 -0 -0 0 -0 -0 0 -0 
0 95.5 0 -0 0 -0 -0 0 -0 -0 0 -0 -3.77 49.231 9.6891 -0 0 -0 -0 0 -0 -10.461 -44.095 1.0838 -34.142 -15.138 -90.454 -0 0 -0 -0 0 -0 27.403 -81.953 82.334 -33.045 34.26 -92.879 -0 0 -0 -3.9539 -29.237 -2.7608 -3.9539 -29.237 -2.7608 -0 0 -0 -0 0 -0 -0 0 -0 -0 0 -0 -0 0 -0 -0 0 -0 -0 0 -0 -0 0 -0 -0 0 -0 -0 0 -0 -0 0 -0 -0 0 -0 
0 95.5 0 -0 0 -0 -0 0 -0 -0 0 -0 -3.3372 49.611 9.8043 -0 0 -0 -0 0 -0 -11.094 -44.035 0.65342 -34.399 -15.223 -90.734 -0 0 -0 -0 0 -0 32.898 -81.705 89.749 -32.286 37.829 -91.706 -0 0 -0 -4.0673 -29.353 -2.7861 -4.0673 -29.353 -2.7861 -0 0 -0 -0 0 -0 -0 0 -0 -0 0 -0 -0 0 -0 -0 0 -0 -0 0 -0 -0 0 -0 -0 0 -0 -0 0 -0 -0 0 -0 -0 0 -0 
0 95.5 0 -0 0 -0 -0 0 -0 -0 0 -0 -2.8548 49.853 10.005 -0 0 -0 -0 0 -0 -11.692 -43.837 0.054854 -34.622 -15.402 -90.95 -0 0 -0 -0 0 -0 36.623 -81.444 95.034 -31.647 40.598 -92.483 -0 0 -0 -4.198 -29.428 -2.8149 -4.198 -29.428 -2.8149 -0 0 -0 -0 0 -0 -0 0 -0 -0 0 -0 -0 0 -0 -0 0 -0 -0 0 -0 -0 0 -0 -0 0 -0 -0 0 -0 -0 0 -0 -0 0 -0 
0 95.5 0 -0 0 -0 -0 0 -0 -0 0 -0 -2.4494 50.003 10.145 -0 0 -0 -0 0 -0 -12.04 -43.586 -0.3699 -34.816 -15.61 -91.204 -0 0 -0 -0 0 -0 40.242 -81.167 99.384 -31.747 42.744 -92.355 -0 0 -0 -4.227 -29.476 -2.8157 -4.227 -29.476 -2.8157 -0 0 -0 -0 0 -0 -0 0 -0 -0 0 -0 -0 0 -0 -0 0 -0 -0 0 -0 -0 0 -0 -0 0 -0 -0 0 -0 -0 0 -0 -0 0 -0 
0 95.5 0 -0 0 -0 -0 0 -0 -0 0 -0 -2.3441 50.272 10.664 -0 0 -0 -0 0 -0 -12.292 -43.447 -0.99906 -35.043 -15.81 -91.528 -0 0 -0 -0 0 -0 43.141 -81.299 102.72 -31.931 44.657 -91.656 -0 0 -0 -4.2412 -29.568 -2.9996 -4.2412 -29.568 -2.9996 -0 0 -0 -0 0 -0 -0 0 -0 -0 0 -0 -0 0 -0 -0 0 -0 -0 0 -0 -0 0 -0 -0 0 -0 -0 0 -0 -0 0 -0 -0 0 -0 
0 95.5 0 -0 0 -0 -0 0 -0 -0 0 -0 -2.6355 50.588 11.425 -0 0 -0 -0 0 -0 -12.399 -43.405 -1.6701 -35.186 -16.007 -91.772 -0 0 -0 -0 0 -0 44.677 -81.604 104.56 -31.402 45.905 -93.208 -0 0 -0 -4.2157 -29.633 -3.233 -4.2157 -29.633 -3.233 -0 0 -0 -0 0 -0 -0 0 -0 -0 0 -0 -0 0 -0 -0 0 -0 -0 0 -0 -0 0 -0 -0 0 -0 -0 0 -0 -0 0 -0 -0 0 -0 
0 95.5 0 -0 0 -0 -0 0 -0 -0 0 -0 -3.1261 50.805 11.941 -0 0 -0 -0 0 -0 -12.141 -43.433 -1.8168 -35.279 -16.139 -91.917 -0 0 -0 -0 0 -0 44.83 -81.715 105.08 -30.51 46.168 -97.059 -0 0 -0 -4.0825 -29.609 -3.314 -4.0825 -29.609 -3.314 -0 0 -0 -0 0 -0 -0 0 -0 -0 0 -0 -0 0 -0 -0 0 -0 -0 0 -0 -0 0 -0 -0 0 -0 -0 0 -0 -0 0 -0 -0 0 -0 
0 95.5 0 -0 0 -0 -0 0 -0 -0 0 -0 -3.4922 50.971 12.237 -0 0 -0 -0 0 -0 -11.955 -43.467 -1.7015 -35.378 -16.172 -92.004 -0 0 -0 -0 0 -0 45.462 -81.716 105.43 -30.713 45.828 -99.338 -0 0 -0 -4.0514 -29.616 -3.3462 -4.0514 -29.616 -3.3462 -0 0 -0 -0 0 -0 -0 0 -0 -0 0 -0 -0 0 -0 -0 0 -0 -0 0 -0 -0 0 -0 -0 0 -0 -0 0 -0 -0 0 -0 -0 0 -0 
0 95.5 0 -0 0 -0 -0 0 -0 -0 0 -0 -3.5714 51.053 12.341 -0 0 -0 -0 0 -0 -11.999 -43.424 -1.6056 -35.492 -16.175 -92.038 -0 0 -0 -0 0 -0 45.419 -81.675 105.18 -31.103 45.571 -100.46 -0 0 -0 -4.1715 -29.593 -3.3196 -4.1715 -29.593 -3.3196 -0 0 -0 -0 0 -0 -0 0 -0 -0 0 -0 -0 0 -0 -0 0 -0 -0 0 -0 -0 0 -0 -0 0 -0 -0 0 -0 -0 0 -0 -0 0 -0 
0 95.5 0 -0 0 -0 -0 0 -0 -0 0 -0 -3.6329 51.175 12.42 -0 0 -0 -0 0 -0 -12.075 -43.485 -1.5757 -35.584 -16.195 -92.012 -0 0 -0 -0 0 -0 45.226 -81.742 105.14 -31.119 45.531 -101.48 -0 0 -0 -4.261 -29.562 -3.2367 -4.261 -29.562 -3.2367 -0 0 -0 -0 0 -0 -0 0 -0 -0 0 -0 -0 0 -0 -0 0 -0 -0 0 -0 -0 0 -0 -0 0 -0 -0 0 -0 -0 0 -0 -0 0 -0 
0 95.5 0 -0 0 -0 -0 0 -0 -0 0 -0 -3.4581 51.151 12.242 -0 0 -0 -0 0 -0 -12.146 -43.424 -1.4567 -35.683 -16.214 -91.929 -0 0 -0 -0 0 -0 45.621 -81.587 105.53 -31.384 45.574 -101.9 -0 0 -0 -4.2934 -29.448 -3.0569 -4.2934 -29.448 -3.0569 -0 0 -0 -0 0 -0 -0 0 -0 -0 0 -0 -0 0 -0 -0 0 -0 -0 0 -0 -0 0 -0 -0 0 -0 -0 0 -0 -0 0 -0 -0 0 -0 
0 95.5 0 -0 0 -0 -0 0 -0 -0 0 -0 -3.3756 51.183 12.269 -0 0 -0 -0 0 -0 -12.281 -43.413 -1.625 -35.734 -16.297 -91.844 -0 0 -0 -0 0 -0 45.746 -81.582 105.61 -31.555 45.583 -102.59 -0 0 -0 -4.3209 -29.35 -2.9702 -4.3209 -29.35 -2.9702 -0 0 -0 -0 0 -0 -0 0 -0 -0 0 -0 -0 0 -0 -0 0 -0 -0 0 -0 -0 0 -0 -0 0 -0 -0 0 -0 -0 0 -0 -0 0 -0 
0 95.5 0 -0 0 -0 -0 0 -0 -0 0 -0 -3.4543 51.152 12.459 -0 0 -0 -0 0 -0 -12.366 -43.386 -1.8901 -35.713 -16.364 -91.72 -0 0 -0 -0 0 -0 45.371 -81.605 105.07 -31.728 45.514 -103.32 -0 0 -0 -4.3403 -29.324 -2.9664 -4.3403 -29.324 -2.9664 -0 0 -0 -0 0 -0 -0 0 -0 -0 0 -0 -0 0 -0 -0 0 -0 -0 0 -0 -0 0 -0 -0 0 -0 -0 0 -0 -0 0 -0 -0 0 -0 
0 95.5 0 -0 0 -0 -0 0 -0 -0 0 -0 -3.5426 51.105 12.552 -0 0 -0 -0 0 -0 -12.351 -43.364 -1.9691 -35.677 -16.384 -91.619 -0 0 -0 -0 0 -0 45.851 -81.603 105.34 -31.937 45.537 -103.49 -0 0 -0 -4.3741 -29.34 -2.9484 -4.3741 -29.34 -2.9484 -0 0 -0 -0 0 -0 -0 0 -0 -0 0 -0 -0 0 -0 -0 0 -0 -0 0 -0 -0 0 -0 -0 0 -0 -0 0 -0 -0 0 -0 -0 0 -0 
0 95.5 0 -0 0 -0 -0 0 -0 -0 0 -0 -3.6265 51.137 12.622 -0 0 -0 -0 0 -0 -12.33 -43.395 -1.9753 -35.691 -16.389 -91.607 -0 0 -0 -0 0 -0 46.165 -81.707 105.61 -31.888 45.596 -103.5 -0 0 -0 -4.4367 -29.367 -2.9429 -4.4367 -29.367 -2.9429 -0 0 -0 -0 0 -0 -0 0 -0 -0 0 -0 -0 0 -0 -0 0 -0 -0 0 -0 -0 0 -0 -0 0 -0 -0 0 -0 -0 0 -0 -0 0 -0 
0 95.5 0 -0 0 -0 -0 0 -0 -0 0 -0 -3.6856 51.162 12.679 -0 0 -0 -0 0 -0 -12.308 -43.412 -1.94 -35.717 -16.348 -91.613 -0 0 -0 -0 0 -0 45.176 -81.875 104.67 -31.743 45.584 -102.89 -0 0 -0 -4.4864 -29.351 -2.9747 -4.4864 -29.351 -2.9747 -0 0 -0 -0 0 -0 -0 0 -0 -0 0 -0 -0 0 -0 -0 0 -0 -0 0 -0 -0 0 -0 -0 0 -0 -0 0 -0 -0 0 -0 -0 0 -0 
